<?xml version="1.0" encoding="UTF-8" standalone="no"?>
<!-- Created with Inkscape (http://www.inkscape.org/) -->

<svg
   xmlns:dc="http://purl.org/dc/elements/1.1/"
   xmlns:cc="http://creativecommons.org/ns#"
   xmlns:rdf="http://www.w3.org/1999/02/22-rdf-syntax-ns#"
   xmlns:svg="http://www.w3.org/2000/svg"
   xmlns="http://www.w3.org/2000/svg"
   xmlns:sodipodi="http://sodipodi.sourceforge.net/DTD/sodipodi-0.dtd"
   xmlns:inkscape="http://www.inkscape.org/namespaces/inkscape"
   width="1000"
   height="464"
   id="svg2"
   version="1.1"
   inkscape:version="0.91+devel+osxmenu r12835"
   viewBox="0 0 1000 464.00001"
   sodipodi:docname="rotor riot.svg">
  <title
     id="title3532">Rotor Riot Logo</title>
  <defs
     id="defs4" />
  <sodipodi:namedview
     id="base"
     pagecolor="#ffffff"
     bordercolor="#666666"
     borderopacity="1.0"
     inkscape:pageopacity="0"
     inkscape:pageshadow="2"
     inkscape:zoom="0.70710678"
     inkscape:cx="460.84325"
     inkscape:cy="296.58898"
     inkscape:document-units="px"
     inkscape:current-layer="layer1"
     showgrid="false"
     fit-margin-top="0"
     fit-margin-left="0"
     fit-margin-right="0"
     fit-margin-bottom="0"
     showborder="false"
     inkscape:window-width="1280"
     inkscape:window-height="755"
     inkscape:window-x="17"
     inkscape:window-y="23"
     inkscape:window-maximized="0" />
  <metadata
     id="metadata7">
    <rdf:RDF>
      <cc:Work
         rdf:about="">
        <dc:format>image/svg+xml</dc:format>
        <dc:type
           rdf:resource="http://purl.org/dc/dcmitype/StillImage" />
        <dc:title>Rotor Riot Logo</dc:title>
        <dc:date>2016/09/17</dc:date>
        <dc:creator>
          <cc:Agent>
            <dc:title>Jeff Walter &lt;jeff@404ster.com&gt;</dc:title>
          </cc:Agent>
        </dc:creator>
        <dc:rights>
          <cc:Agent>
            <dc:title>Copyright 2105 Rotor Riot</dc:title>
          </cc:Agent>
        </dc:rights>
        <dc:source>rotorriot.com</dc:source>
        <dc:language>English</dc:language>
        <dc:description>Recreated Rotor Riot logo, not converted.</dc:description>
        <cc:license
           rdf:resource="http://creativecommons.org/licenses/by-nc-sa/3.0/" />
      </cc:Work>
      <cc:License
         rdf:about="http://creativecommons.org/licenses/by-nc-sa/3.0/">
        <cc:permits
           rdf:resource="http://creativecommons.org/ns#Reproduction" />
        <cc:permits
           rdf:resource="http://creativecommons.org/ns#Distribution" />
        <cc:requires
           rdf:resource="http://creativecommons.org/ns#Notice" />
        <cc:requires
           rdf:resource="http://creativecommons.org/ns#Attribution" />
        <cc:prohibits
           rdf:resource="http://creativecommons.org/ns#CommercialUse" />
        <cc:permits
           rdf:resource="http://creativecommons.org/ns#DerivativeWorks" />
        <cc:requires
           rdf:resource="http://creativecommons.org/ns#ShareAlike" />
      </cc:License>
    </rdf:RDF>
  </metadata>
  <g
     inkscape:label="Layer 1"
     inkscape:groupmode="layer"
     id="layer1"
     transform="translate(0,-738.3622)">
    <g
       id="g3528"
       inkscape:export-filename="/Users/jwalter/Desktop/svg.png"
       inkscape:export-xdpi="90"
       inkscape:export-ydpi="90">
      <path
         id="path3660"
         d="m 144,738.3622 c -0.66881,0.2033 -0.864,0.65353 -1,2.00319 l -4,40.06379 21,0 -4,-40.06379 c -0.14536,-1.51759 -0.40098,-1.81539 -1,-2.00319 l -11,0 z m -8.67969,14.25707 C 58.538837,760.18175 0.0073736,824.84808 0,902.12296 c 0,22.30857 4.8597083,43.47823 13.568359,62.5136 l 15.78125,-11.31685 C 22.687036,937.58849 19,920.28757 19,902.12296 19.082077,836.05306 68.199575,780.3503 133.64844,772.10343 l 1.67187,-19.48416 z m 29.26758,0.1565 1.6543,19.27288 c 65.5129,8.19888 114.69632,63.94671 114.75781,130.07431 0,18.22826 -3.71501,35.58579 -10.42188,51.36108 l 15.77735,11.31293 C 295.11062,945.71988 300,924.49465 300,902.12296 299.90766,824.87611 241.34622,760.28818 164.58789,752.77577 Z m -48.77539,36.66777 c -6.2997,0 -10.54843,1.80692 -14.1875,5.50877 L 75.25,822.49617 c -4.111302,4.4952 -8.427016,12.53261 -8,19.78149 l 2,38.06061 c -5.806497,2.08383 -12.296578,2.11363 -18.75,2.25359 l 0,28.04465 15.25,5.50877 15.75,2.00319 0,-21.78469 c 0,-3.42572 3.024701,-5.54011 9.25,-4.25677 l 42,11.26794 c 3.5,0.96618 7.35826,1.75279 10.5,1.75279 l 6.75,0 6.75,0 c 3.14174,0 7,-0.78661 10.5,-1.75279 l 42,-11.26794 c 6.2253,-1.28334 9.25,0.83105 9.25,4.25677 l 0,21.78469 15.75,-2.00319 15.25,-5.50877 0,-28.04465 c -6.45342,-0.13996 -12.9435,-0.16976 -18.75,-2.25359 l 2,-38.06061 c 0.42702,-7.24888 -3.8887,-15.28629 -8,-19.78149 l -26.375,-27.54386 c -3.63907,-3.70185 -7.8878,-5.50877 -14.1875,-5.50877 l -34.1875,0 -34.1875,0 z M 68,927.16283 l -5,7.57456 16.5,25.60326 11.625,0.4382 c 5.348479,0.0475 9.73324,1.06012 12.75,3.44298 l 10,10.01595 -10.125,25.66587 13.5,11.01755 5.75,-6.1348 4.625,11.0176 17,4.382 3,-48.5774 -10.125,4.25677 12.5,-26.54226 12.5,26.54226 -10.125,-4.25677 3,48.5774 17,-4.382 4.625,-11.0176 5.75,6.1348 13.5,-11.01755 -10.125,-25.66587 10,-10.01595 c 3.01676,-2.38286 7.40152,-3.39554 12.75,-3.44298 l 11.625,-0.4382 16.5,-25.60326 -5,-7.57456 -15,1.75279 -15.25,9.51515 c -10.37001,2.24597 -23.06929,2.99352 -40.75,0.2504 -1.9129,-3.07669 -6.67343,-9.59599 -11,-9.51515 -4.32657,-0.0808 -9.0871,6.43846 -11,9.51515 -17.68071,2.74312 -30.37999,1.99557 -40.75,-0.2504 L 83,928.91562 68,927.16283 Z M 57.527344,941.63314 7.4238281,976.88261 c -1.9442108,1.32443 -2.1911856,1.81835 -2.0859375,2.58225 l 5.5488284,9.62469 c 0.670163,0.53332 1.388411,0.38554 3.27539,-0.51839 l 56.490235,-26.0043 -13.125,-20.93372 z m 184.914066,0 -13.125,20.93372 56.49218,26.0043 c 1.88698,0.90393 2.60523,1.05171 3.27539,0.51839 l 5.54883,-9.62469 c 0.10525,-0.7639 -0.14173,-1.25782 -2.08593,-2.58225 L 242.44141,941.63314 Z M 45.607422,981.38588 28.113281,989.69795 C 55.338898,1027.6443 99.7851,1052.3622 150,1052.3622 c 50.18181,0 94.60167,-24.6859 121.83203,-62.58991 l -17.49414,-8.31207 C 230.41117,1012.9783 192.58119,1033.3319 150,1033.3319 c -42.61429,0 -80.468909,-20.3861 -104.392578,-51.94602 z"
         style="opacity:1;fill:#000000;fill-opacity:1;stroke:none;stroke-width:1;stroke-miterlimit:4;stroke-dasharray:2, 2;stroke-dashoffset:0;stroke-opacity:0.57823127"
         inkscape:connector-curvature="0" />
      <path
         id="rect4615"
         d="m 324,825.36218 c 26.59006,46 27.60267,92 8.00108,138 l 652.26003,0 c 22.53869,-47.01283 19.37209,-92.87054 0,-138 z m 532.23795,36.61328 -0.87707,8.38672 -0.29496,9.27344 c -7.4668,1.65709 -12.79701,8.4108 -12.80642,16.22656 0.002,1.55015 0.21544,3.09243 0.63485,4.58203 l -7.96006,4.93945 -7.06346,5.125 c -2.19979,-4.57019 -3.34911,-9.57457 -3.36373,-14.64648 0.0196,-17.88089 13.88756,-32.69111 31.73085,-33.88672 z m 4.54749,0 c 17.84329,1.19561 31.71129,16.00583 31.73085,33.88672 -0.0146,5.07191 -1.16394,10.07629 -3.36373,14.64648 l -7.06346,-5.125 -7.96006,-4.93945 c 0.41941,-1.4896 0.6331,-3.03188 0.63485,-4.58203 -0.009,-7.81576 -5.33962,-14.56947 -12.80642,-16.22656 l -0.29496,-9.27344 z m -382.82518,0.082 c 17.75981,1.30924 31.50132,16.09674 31.50426,33.90235 -0.0172,17.79509 -13.75494,32.56655 -31.50426,33.875 l 0,-17.45899 c 7.91105,-1.26 13.74653,-8.22599 13.75186,-16.41601 -0.01,-8.18632 -5.84438,-15.14682 -13.75186,-16.40625 z m 121.51642,0 c 17.75981,1.30924 31.50132,16.09674 31.50426,33.90235 -0.0172,17.79509 -13.75494,32.56655 -31.50426,33.875 l 0,-17.45899 c 7.91105,-1.26 13.74653,-8.22599 13.75186,-16.41601 -0.01,-8.18632 -5.84438,-15.14682 -13.75186,-16.40625 z m -126.5171,0.0273 0,17.45898 c -7.91106,1.26 -13.74653,8.22599 -13.75186,16.41602 0.01,8.18632 5.84438,15.14682 13.75186,16.40625 l 0,17.49614 c -17.75981,-1.30924 -31.5013,-16.09673 -31.50425,-33.90234 0.0172,-17.79509 13.75493,-32.56655 31.50425,-33.875 z m 121.51643,0 0,17.45898 c -7.91106,1.26 -13.74654,8.22599 -13.75186,16.41602 0.01,8.18632 5.84438,15.14682 13.75186,16.40625 l 0,17.49609 c -17.75981,-1.30924 -31.50131,-16.09673 -31.50426,-33.90234 0.0172,-17.79509 13.75494,-32.56655 31.50426,-33.875 z m -211.52859,0.77739 15.00203,0 0,64 c 0,1.07284 -0.97323,2 -2.00028,2 l -13.00175,0 c -1.03913,0.002 -2.00027,-0.92899 -2.00027,-2 l 0,-62 c 0,-1.03743 1.00967,-2 2.00027,-2 z m 20.0027,0 10.75145,0 c 11.73764,0 21.25288,10.40938 21.25288,23.25 0,8.06814 -3.75812,15.17439 -9.46222,19.34375 -1.38509,1.11843 -1.19569,2.49077 0,4.02539 l 12.53294,15.85742 c 1.63288,1.9742 0.92154,3.52344 -1.30486,3.52344 l -15.43177,0 c -2.20782,0 -3.00058,-1.04615 -3.8052,-2.09375 l -10.09512,-14.21875 c -1.43016,-1.75505 -2.06153,-2.72553 -4.4381,-3.0625 l 0,-16.3125 9.50129,-0.0625 c 2.76179,0 5.00067,-3.13401 5.00067,-7 0,-3.86599 -2.23888,-7 -5.00067,-7 l -9.50129,0 z m 109.01474,0 47.00635,0 c 1.07298,0 2.00027,0.97309 2.00027,2 l 0,13 c 0.002,1.03899 -0.92912,2 -2.00027,2 l -47.00635,0 c -1.03757,0 -2.00027,-1.00954 -2.00027,-2 l 0,-13 c 0,-1.00333 0.94114,-2 2.00027,-2 z m 129.01743,0 15.00203,0 0,64 c 0,1.07284 -0.97322,2 -2.00027,2 l -13.00176,0 c -1.03913,0.002 -2.00027,-0.92899 -2.00027,-2 l 0,-62 c 0,-1.03743 1.00968,-2 2.00027,-2 z m 20.00271,0 10.75145,0 c 11.73764,0 21.25287,10.40938 21.25287,23.25 0,8.06814 -3.75812,15.17439 -9.46222,19.34375 -1.38508,1.11843 -1.19569,2.49077 0,4.02539 l 12.53295,15.85742 c 1.63288,1.9742 0.92153,3.52344 -1.30487,3.52344 l -15.43176,0 c -2.20782,0 -3.00058,-1.04615 -3.80521,-2.09375 L 665.4231,912.54965 c -1.43017,-1.75505 -2.06153,-2.72553 -4.4381,-3.0625 l 0,-16.3125 9.50128,-0.0625 c 2.76179,0 5.00068,-3.13401 5.00068,-7 0,-3.86599 -2.23889,-7 -5.00068,-7 l -9.50128,0 z m 75.01014,0 15.00202,0 0,64 c 0,1.07284 -0.97322,2 -2.00027,2 l -13.00175,0 c -1.03913,0.002 -2.00027,-0.92899 -2.00027,-2 l 0,-62 c 0,-1.03743 1.00967,-2 2.00027,-2 z m 20.0027,0 10.75145,0 c 11.73764,0 21.25287,10.40938 21.25287,23.25 0,8.06814 -3.75811,15.17439 -9.46221,19.34375 -1.38509,1.11843 -1.1957,2.49077 0,4.02539 l 12.53294,15.85742 c 1.63288,1.9742 0.92153,3.52344 -1.30487,3.52344 l -15.43176,0 c -2.20782,0 -3.00058,-1.04615 -3.80521,-2.09375 l -10.09511,-14.21875 c -1.43016,-1.75505 -2.06153,-2.72553 -4.4381,-3.0625 l 0,-16.3125 9.50128,-0.0625 c 2.7618,0 5.00068,-3.13401 5.00068,-7 0,-3.86599 -2.23888,-7 -5.00068,-7 l -9.50128,0 z m 44.00595,0 13.00175,0 c 1.00347,0 2.00027,0.94102 2.00027,2 l 0,62 c 0,1.07284 -0.97322,2 -2.00027,2 l -13.00175,0 c -1.03913,0.002 -2.00027,-0.92899 -2.00027,-2 l 0,-62 c 0,-1.03743 1.00967,-2 2.00027,-2 z m 94.0127,0 47.00636,0 c 1.07298,0 2.00027,0.97309 2.00027,2 l 0,13 c 0.002,1.03899 -0.92912,2 -2.00027,2 l -47.00636,0 c -1.03757,0 -2.00027,-1.00954 -2.00027,-2 l 0,-13 c 0,-1.00333 0.94115,-2 2.00027,-2 z m -367.04961,21 17.0023,0 0,43 c 0,1.07284 -0.97322,2 -2.00027,2 l -13.00176,0 c -1.03913,0.002 -2.00027,-0.92899 -2.00027,-2 z m 382.05164,0 17.0023,0 0,43 c 0,1.07284 -0.97322,2 -2.00027,2 l -13.00176,0 c -1.03913,0.002 -2.00027,-0.92899 -2.00027,-2 z m -62.93038,22.69141 c 3.08298,3.75542 7.62955,5.92689 12.42355,5.93359 4.79401,-0.007 9.34058,-2.17817 12.42356,-5.93359 l 8.00499,4.28711 8.02842,3.58007 c -6.26898,9.62186 -16.97196,15.42955 -28.45697,15.44141 -11.485,-0.0119 -22.18798,-5.81955 -28.45696,-15.44141 l 8.02842,-3.58007 z"
         style="opacity:1;fill:#000000;fill-opacity:1;stroke:none;stroke-width:1;stroke-miterlimit:4;stroke-dasharray:2, 2;stroke-dashoffset:0;stroke-opacity:0.57823127"
         inkscape:connector-curvature="0"
         sodipodi:nodetypes="cccccccccccccccccccccccccccccccccccccccccccccscccccscsscssscsscccsscccccssccssscsssssscsscssscsscccsscccccssccscsscssscsscccsscccccssccssssscsssscscsssssccsscscccsscsccccccccccc" />
    </g>
    <path
       id="path4618"
       d="m 475.22656,1134.4755 c -17.84087,1.1956 -31.70699,16.0058 -31.72656,33.8867 0.0146,5.0719 1.16378,10.0763 3.36328,14.6465 l 7.0625,-5.125 7.95899,-4.9395 c -0.41935,-1.4896 -0.63301,-3.0319 -0.63477,-4.582 0.009,-7.8158 5.33888,-14.5695 12.80469,-16.2266 l 0.29492,-9.2734 z m 4.54688,0 0.87695,8.3867 0.29492,9.2734 c 7.46581,1.6571 12.7953,8.4108 12.80469,16.2266 -0.002,1.5501 -0.21542,3.0924 -0.63477,4.582 l 7.95899,4.9395 7.0625,5.125 c 2.1995,-4.5702 3.34866,-9.5746 3.36328,-14.6465 -0.0196,-17.8809 -13.88569,-32.6911 -31.72656,-33.8867 z M 97,1134.5575 l 0,17.4961 c 7.9064,1.2594 13.73995,8.2199 13.75,16.4062 -0.005,8.1901 -5.83999,15.1561 -13.75,16.4161 l 0,17.4589 c 17.74692,-1.3085 31.48275,-16.0799 31.5,-33.875 -0.003,-17.8056 -13.74261,-32.5931 -31.5,-33.9023 z m 121.5,0 0,17.4961 c 7.9064,1.2594 13.73995,8.2199 13.75,16.4062 -0.005,8.1901 -5.83999,15.1561 -13.75,16.4161 l 0,17.4589 c 17.74692,-1.3085 31.48275,-16.0799 31.5,-33.875 -0.003,-17.8056 -13.74261,-32.5931 -31.5,-33.9023 z m -126.5,0.027 c -17.746925,1.3085 -31.482747,16.0799 -31.5,33.875 0.0029,17.8056 13.742568,32.5932 31.5,33.9024 l 0,-17.4961 c -7.906433,-1.2594 -13.739999,-8.22 -13.75,-16.4063 0.0053,-8.19 5.840022,-15.156 13.75,-16.416 z m 121.5,0 c -17.74692,1.3085 -31.48275,16.0799 -31.5,33.875 0.003,17.8056 13.74257,32.5932 31.5,33.9024 l 0,-17.4961 c -7.90643,-1.2594 -13.74,-8.22 -13.75,-16.4063 0.005,-8.19 5.84002,-15.156 13.75,-16.416 z M 2,1135.3622 c -0.99046,0 -2,0.9626 -2,2 l 0,62 c 0,1.071 0.96101,2.002 2,2 l 13,0 c 1.02691,0 2,-0.9272 2,-2 l 0,-64 z m 20,0 0,16.25 9.5,0 c 2.76142,0 5,3.134 5,7 0,3.866 -2.23858,7 -5,7 l -9.5,0.062 0,16.3125 c 2.37625,0.337 3.00753,1.3074 4.4375,3.0625 l 10.09375,14.2187 c 0.80452,1.0476 1.59717,2.0938 3.80469,2.0938 l 15.42968,0 c 2.2261,0 2.93735,-1.5493 1.30469,-3.5235 l -12.53125,-15.8574 c -1.19553,-1.5346 -1.3849,-2.9069 0,-4.0254 C 50.24239,1173.7866 54,1166.6803 54,1158.6122 c 0,-12.8406 -9.51395,-23.25 -21.25,-23.25 z m 109,0 c -1.05898,0 -2,0.9967 -2,2 l 0,13 c 0,0.9904 0.96257,2 2,2 l 47,0 c 1.07101,0 2.002,-0.961 2,-2 l 0,-13 c 0,-1.0269 -0.92716,-2 -2,-2 z m 129,0 c -0.99046,0 -2,0.9626 -2,2 l 0,62 c 0,1.071 0.96101,2.002 2,2 l 13,0 c 1.02691,0 2,-0.9272 2,-2 l 0,-64 z m 20,0 0,16.25 9.5,0 c 2.76142,0 5,3.134 5,7 0,3.866 -2.23858,7 -5,7 l -9.5,0.062 0,16.3125 c 2.37625,0.337 3.00753,1.3074 4.4375,3.0625 l 10.09375,14.2187 c 0.80452,1.0476 1.59717,2.0938 3.80469,2.0938 l 15.42968,0 c 2.2261,0 2.93735,-1.5493 1.30469,-3.5235 l -12.53125,-15.8574 c -1.19553,-1.5346 -1.3849,-2.9069 0,-4.0254 5.70333,-4.1693 9.46094,-11.2756 9.46094,-19.3437 0,-12.8406 -9.51395,-23.25 -21.25,-23.25 l -10.75,0 z m 75,0 c -0.99046,0 -2,0.9626 -2,2 l 0,62 c 0,1.071 0.96101,2.002 2,2 l 13,0 c 1.02691,0 2,-0.9272 2,-2 l 0,-64 z m 20,0 0,16.25 9.5,0 c 2.76142,0 5,3.134 5,7 0,3.866 -2.23858,7 -5,7 l -9.5,0.062 0,16.3125 c 2.37625,0.337 3.00753,1.3074 4.4375,3.0625 l 10.09375,14.2187 c 0.80452,1.0476 1.59717,2.0938 3.80469,2.0938 l 15.42968,0 c 2.2261,0 2.93735,-1.5493 1.30469,-3.5235 l -12.53125,-15.8574 c -1.19553,-1.5346 -1.3849,-2.9069 0,-4.0254 5.70333,-4.1693 9.46094,-11.2756 9.46094,-19.3437 0,-12.8406 -9.51395,-23.25 -21.25,-23.25 l -10.75,0 z m 44,0 c -0.99046,0 -2,0.9626 -2,2 l 0,62 c 0,1.071 0.96101,2.002 2,2 l 13,0 c 1.02691,0 2,-0.9272 2,-2 l 0,-62 c 0,-1.059 -0.99667,-2 -2,-2 z m 94,0 c -1.05898,0 -2,0.9967 -2,2 l 0,13 c 0,0.9904 0.96257,2 2,2 l 47,0 c 1.07101,0 2.002,-0.961 2,-2 l 0,-13 c 0,-1.0269 -0.92716,-2 -2,-2 z m -367,21 0,43 c 0,1.071 0.96101,2.002 2,2 l 13,0 c 1.02691,0 2,-0.9272 2,-2 l 0,-43 z m 382,0 0,43 c 0,1.071 0.96101,2.002 2,2 l 13,0 c 1.02691,0 2,-0.9272 2,-2 l 0,-43 z m -62.92188,22.6914 -8.0039,4.2871 -8.02734,3.5801 c 6.26814,9.6219 16.96967,15.4295 28.45312,15.4414 11.48345,-0.012 22.18498,-5.8195 28.45312,-15.4414 l -8.02734,-3.5801 -8.0039,-4.2871 c -3.08257,3.7554 -7.62851,5.9269 -12.42188,5.9336 -4.79337,-0.01 -9.33931,-2.1782 -12.42188,-5.9336 z"
       style="opacity:1;fill:#000000;fill-opacity:1;stroke:none;stroke-width:1;stroke-miterlimit:4;stroke-dasharray:2, 2;stroke-dashoffset:0;stroke-opacity:0.57823127"
       inkscape:connector-curvature="0"
       sodipodi:nodetypes="ccccccccccccccccccccccccccccccccccccccccccccccssscsscsccsscccccsscccsscssssscsssssscsscsccsscccccsscccssccssscsscsccsscccccsscccssccssscsssssssssscssscscsscccscssccccccccccc"
       inkscape:export-filename="/Users/jwalter/Desktop/svg.png"
       inkscape:export-xdpi="90"
       inkscape:export-ydpi="90" />
  </g>
</svg>
